HIERARCHY
ROOT Hips
{
	OFFSET 0.00000 0.00000 0.00000
	CHANNELS 6 Xposition Yposition Zposition Zrotation Yrotation Xrotation 
	JOINT LHipJoint
	{
		OFFSET 0 0 0
		CHANNELS 3 Zrotation Yrotation Xrotation
		JOINT LeftUpLeg
		{
			OFFSET 1.59801 -1.77853 0.57028
			CHANNELS 3 Zrotation Yrotation Xrotation
			JOINT LeftLeg
			{
				OFFSET 2.39439 -6.57854 0.00000
				CHANNELS 3 Zrotation Yrotation Xrotation
				JOINT LeftFoot
				{
					OFFSET 2.69334 -7.39989 0.00000
					CHANNELS 3 Zrotation Yrotation Xrotation
					JOINT LeftToeBase
					{
						OFFSET 0.09553 -0.26245 1.73747
						CHANNELS 3 Zrotation Yrotation Xrotation
						End Site
						{
							OFFSET 0.00000 -0.00000 0.89391
						}
					}
				}
			}
		}
	}
	JOINT RHipJoint
	{
		OFFSET 0 0 0
		CHANNELS 3 Zrotation Yrotation Xrotation
		JOINT RightUpLeg
		{
			OFFSET -1.54704 -1.77852 0.57028
			CHANNELS 3 Zrotation Yrotation Xrotation
			JOINT RightLeg
			{
				OFFSET -2.40286 -6.60180 0.00000
				CHANNELS 3 Zrotation Yrotation Xrotation
				JOINT RightFoot
				{
					OFFSET -2.63873 -7.24984 0.00000
					CHANNELS 3 Zrotation Yrotation Xrotation
					JOINT RightToeBase
					{
						OFFSET -0.15631 -0.42945 1.84436
						CHANNELS 3 Zrotation Yrotation Xrotation
						End Site
						{
							OFFSET -0.00000 -0.00000 0.95734
						}
					}
				}
			}
		}
	}
	JOINT LowerBack
	{
		OFFSET 0 0 0
		CHANNELS 3 Zrotation Yrotation Xrotation
		JOINT Spine
		{
			OFFSET -0.00436 1.89866 -0.04018
			CHANNELS 3 Zrotation Yrotation Xrotation
			JOINT Spine1
			{
				OFFSET 0.02031 1.88273 0.09634
				CHANNELS 3 Zrotation Yrotation Xrotation
				JOINT Neck
				{
					OFFSET 0 0 0
					CHANNELS 3 Zrotation Yrotation Xrotation
					JOINT Neck1
					{
						OFFSET -0.13105 1.89371 0.23083
						CHANNELS 3 Zrotation Yrotation Xrotation
						JOINT Head
						{
							OFFSET 0.17062 1.83990 -0.54062
							CHANNELS 3 Zrotation Yrotation Xrotation
							End Site
							{
								OFFSET 0.04576 1.94782 -0.21839
							}
						}
					}
				}
				JOINT LeftShoulder
				{
					OFFSET 0 0 0
					CHANNELS 3 Zrotation Yrotation Xrotation
					JOINT LeftArm
					{
						OFFSET 3.12424 1.09204 0.22226
						CHANNELS 3 Zrotation Yrotation Xrotation
						JOINT LeftForeArm
						{
							OFFSET 5.29277 -0.00000 0.00000
							CHANNELS 3 Zrotation Yrotation Xrotation
							JOINT LeftHand
							{
								OFFSET 2.85226 -0.00000 0.00000
								CHANNELS 3 Zrotation Yrotation Xrotation
								JOINT LeftFingerBase
								{
									OFFSET 0 0 0
									CHANNELS 3 Zrotation Yrotation Xrotation
									JOINT LeftHandIndex1
									{
										OFFSET 0.60210 -0.00000 0.00000
										CHANNELS 3 Zrotation Yrotation Xrotation
										End Site
										{
											OFFSET 0.48543 -0.00000 0.00000
										}
									}
								}
								JOINT LThumb
								{
									OFFSET 0 0 0
									CHANNELS 3 Zrotation Yrotation Xrotation
									End Site
									{
										OFFSET 0.49284 -0.00000 0.49284
									}
								}
							}
						}
					}
				}
				JOINT RightShoulder
				{
					OFFSET 0 0 0
					CHANNELS 3 Zrotation Yrotation Xrotation
					JOINT RightArm
					{
						OFFSET -2.91709 1.01504 0.30199
						CHANNELS 3 Zrotation Yrotation Xrotation
						JOINT RightForeArm
						{
							OFFSET -5.13304 -0.00000 0.00000
							CHANNELS 3 Zrotation Yrotation Xrotation
							JOINT RightHand
							{
								OFFSET -2.74305 -0.00000 0.00000
								CHANNELS 3 Zrotation Yrotation Xrotation
								JOINT RightFingerBase
								{
									OFFSET 0 0 0
									CHANNELS 3 Zrotation Yrotation Xrotation
									JOINT RightHandIndex1
									{
										OFFSET -0.76798 -0.00000 0.00000
										CHANNELS 3 Zrotation Yrotation Xrotation
										End Site
										{
											OFFSET -0.61916 -0.00000 0.00000
										}
									}
								}
								JOINT RThumb
								{
									OFFSET 0 0 0
									CHANNELS 3 Zrotation Yrotation Xrotation
									End Site
									{
										OFFSET -0.62862 -0.00000 0.62862
									}
								}
							}
						}
					}
				}
			}
		}
	}
}
MOTION
Frames: 16
Frame Time: .0083333
0.2637 17.1014 1.4271 0 0 0 0 0 0 -21 0 0 0 0 0 0 0 0 0 0 0 0 0 0 21 0 0 0 0 0 0 0 0 0 0 0 0 0 0 0 0 0 0 0 0 0 0 -16 0 0 21 0 0 11 0 0 0 -8 0 0 0 0 0 0 0 0 0 0 0 0 0 0 0 0 0 0 0 0 8 0 0 0 0 0 0 0 0 0 0 0 0 0 0 0 0 0
0.2637 17.1014 1.4271 -3.4552 2.5587 -3.2417 0.0000 0.0000 0.0000 -20.7712 -16.2447 15.0493 0.9733 6.2806 17.6008 1.4903 5.7798 -25.7799 0.4364 -4.2389 -11.7497 0.0000 0.0000 0.0000 24.0205 1.4541 19.8456 0.0000 0.0000 -0.0000 -0.1767 -9.9264 -16.7227 -0.8334 5.8239 -16.2742 -1.8682 0.2006 -12.2904 -0.4529 0.4452 -8.8464 0.6214 0.3010 -2.3959 -20.9239 -10.9999 0.5052 17.3515 -18.2913 22.1856 7.6569 -9.2052 10.5961 -0.0000 0.0000 0.0000 -25.8959 -74.3543 -35.6462 51.6109 -53.6249 -27.4660 -0.0000 0.0000 -30.0072 45.8385 32.5819 29.0084 -7.1250 0.0000 -0.0000 23.1434 71.3114 14.7495 -0.0000 0.0000 0.0000 2.1918 66.2892 -65.2439 -53.8463 54.4337 -29.2752 0.0000 -0.0000 -7.6251 -48.4473 3.3784 -3.8038 7.1250 -0.0000 -0.0000 -16.2109 -24.8654 -8.2090
0.2630 17.0995 1.4301 -3.4520 2.5607 -3.3143 0.0000 0.0000 0.0000 -20.8058 -16.2399 15.1501 0.9738 6.2824 17.6059 1.5025 5.7921 -25.8772 0.4375 -4.2442 -11.7648 0.0000 0.0000 0.0000 24.0214 1.4191 19.9196 0.0000 0.0000 -0.0000 -0.1693 -9.9626 -16.6692 -0.8659 5.9336 -16.5919 -1.9213 0.1919 -12.3318 -0.4333 0.4401 -8.8191 0.6716 0.3007 -2.3453 -20.8662 -11.0017 0.6079 17.1988 -18.2871 22.2458 7.5967 -9.2151 10.5745 -0.0000 -0.0000 0.0000 -26.1896 -73.6686 -35.4400 51.9889 -53.7668 -27.7706 -0.0000 0.0000 -30.0144 45.7778 32.8050 29.1045 -7.1250 0.0000 -0.0000 23.0845 71.5410 14.8256 -0.0000 -0.0000 0.0000 2.3902 65.7121 -65.0844 -54.0725 54.5116 -29.4594 0.0000 -0.0000 -7.4068 -48.6303 3.0117 -3.4141 7.1250 -0.0000 -0.0000 -16.4309 -25.3770 -8.1247
0.2602 17.0971 1.4348 -3.4822 2.5695 -3.3836 0.0000 0.0000 0.0000 -20.7795 -16.2120 15.2171 0.9773 6.2930 17.6371 1.5247 5.7053 -25.9896 0.4264 -4.1908 -11.6141 0.0000 0.0000 0.0000 24.0614 1.3702 20.0031 0.0000 -0.0000 0.0000 -0.1762 -9.9422 -16.7354 -0.8427 5.8554 -16.3654 -1.9442 0.1723 -12.4051 -0.3885 0.4188 -8.7980 0.7296 0.2917 -2.2838 -20.9114 -10.9731 0.7584 17.0750 -18.2542 22.3427 7.5736 -9.2215 10.5655 0.0000 -0.0000 0.0000 -26.2490 -72.9466 -35.4397 52.2089 -53.8484 -27.9481 -0.0000 0.0000 -30.0645 45.7232 32.2112 28.6641 -7.1250 0.0000 -0.0000 22.7970 70.8614 14.2984 0.0000 -0.0000 0.0000 2.5925 65.1724 -64.8531 -54.2087 54.5581 -29.5703 0.0000 -0.0000 -7.0630 -48.8855 2.6206 -2.9987 7.1250 -0.0000 -0.0000 -16.7110 -25.9208 -8.0524
0.2583 17.0951 1.4408 -3.5154 2.5917 -3.4849 0.0000 0.0000 0.0000 -20.7707 -16.1766 15.3388 0.9791 6.2989 17.6541 1.5357 5.5251 -25.9663 0.3526 -3.8153 -10.5576 0.0000 0.0000 0.0000 24.0999 1.2939 20.1168 0.0000 0.0000 -0.0000 -0.1836 -9.8809 -16.7588 -0.8402 5.8471 -16.3414 -1.9594 0.1709 -12.5107 -0.3859 0.4221 -8.7100 0.7424 0.2922 -2.1339 -20.9036 -10.9429 0.7829 17.0022 -18.2173 22.4866 7.5570 -9.2107 10.5968 0.0000 -0.0000 0.0000 -26.1135 -72.3534 -35.5827 52.3593 -53.9038 -28.0697 -0.0000 0.0000 -30.0081 45.5940 31.6949 28.2093 -7.1250 0.0000 -0.0000 22.3934 70.2421 13.7334 0.0000 -0.0000 0.0000 2.5992 64.5558 -64.8896 -54.3350 54.6010 -29.6731 0.0000 -0.0000 -7.0650 -49.1143 2.5958 -2.9944 7.1250 -0.0000 -0.0000 -16.8818 -25.9372 -8.1351
0.2584 17.0923 1.4452 -3.5508 2.5913 -3.5554 0.0000 0.0000 0.0000 -20.7354 -16.0997 15.3877 0.9830 6.3109 17.6891 1.5406 5.3087 -25.8793 0.3069 -3.5614 -9.8460 0.0000 0.0000 0.0000 24.1401 1.2540 20.2030 0.0000 -0.0000 0.0000 -0.1826 -9.8789 -16.7437 -0.8685 5.9422 -16.6167 -1.9418 0.1959 -12.6364 -0.4014 0.4573 -8.6333 0.7213 0.3068 -1.9856 -20.7822 -10.9296 0.9795 16.8727 -18.1902 22.3883 7.5007 -9.2080 10.4888 -0.0000 -0.0000 0.0000 -26.1119 -71.8076 -35.6168 52.5922 -53.9889 -28.2579 -0.0000 0.0000 -29.9534 45.8390 32.0118 28.6280 -7.1250 0.0000 -0.0000 22.9722 70.6743 14.3181 -0.0000 -0.0000 0.0000 2.7587 63.8867 -64.8264 -54.5042 54.6581 -29.8111 0.0000 -0.0000 -7.1552 -49.1937 2.7387 -3.1676 7.1250 -0.0000 -0.0000 -16.9025 -25.7218 -8.2354
0.2586 17.0905 1.4470 -3.5095 2.6549 -3.6298 0.0000 0.0000 0.0000 -20.7778 -16.0403 15.4280 0.9854 6.3183 17.7108 1.5207 5.4523 -25.8145 0.3844 -3.9818 -11.0254 0.0000 0.0000 0.0000 24.0899 1.1598 20.2706 0.0000 0.0000 -0.0000 -0.1849 -9.8772 -16.7719 -0.8595 5.9121 -16.5296 -1.9518 0.2241 -12.6423 -0.4849 0.4957 -8.6191 0.6443 0.3241 -1.9677 -20.6289 -10.9312 1.2959 16.7026 -18.2007 22.2914 7.4250 -9.2304 10.3599 0.0000 0.0000 0.0000 -26.1442 -71.2345 -35.4689 52.7308 -54.0392 -28.3700 -0.0000 0.0000 -30.0000 45.8894 32.0621 28.7042 -7.1250 0.0000 -0.0000 23.0893 70.7463 14.4299 0.0000 0.0000 0.0000 3.1827 63.1931 -64.6265 -54.8192 54.7634 -30.0683 0.0000 -0.0000 -7.1162 -49.1601 2.4674 -2.8513 7.1250 -0.0000 -0.0000 -16.9474 -26.1204 -8.0931
0.2581 17.0874 1.4501 -3.5458 2.6577 -3.7188 0.0000 0.0000 0.0000 -20.7540 -15.9758 15.5143 0.9859 6.3199 17.7156 1.5071 5.6003 -25.7996 0.4521 -4.3135 -11.9603 0.0000 0.0000 0.0000 24.1348 1.1119 20.3639 0.0000 0.0000 -0.0000 -0.1847 -9.9016 -16.7979 -0.8711 5.9509 -16.6420 -1.8926 0.2649 -12.6357 -0.5365 0.5435 -8.6131 0.5625 0.3441 -1.9647 -20.5410 -10.9151 1.4902 16.5789 -18.1995 22.3738 7.3784 -9.2431 10.3301 -0.0000 -0.0000 0.0000 -26.2052 -70.6208 -35.3012 52.7689 -54.0530 -28.4009 -0.0000 0.0000 -30.0577 45.8639 31.9369 28.5985 -7.1250 0.0000 -0.0000 23.0000 70.5981 14.2977 -0.0000 -0.0000 0.0000 3.5128 62.4692 -64.4131 -55.0524 54.8405 -30.2588 0.0000 -0.0000 -7.1714 -49.2059 2.1565 -2.4966 7.1250 -0.0000 -0.0000 -17.0599 -26.5706 -7.9623
0.2569 17.0847 1.4525 -3.4973 2.6792 -3.8314 0.0000 0.0000 0.0000 -20.8400 -15.9399 15.6731 0.9819 6.3074 17.6789 1.5172 5.6250 -25.8883 0.4714 -4.4037 -12.2152 0.0000 0.0000 0.0000 24.0852 1.0406 20.4821 0.0000 0.0000 -0.0000 -0.1911 -9.8818 -16.8586 -0.8612 5.9178 -16.5460 -1.9651 0.2714 -12.6109 -0.5746 0.5591 -8.5672 0.5653 0.3532 -1.9302 -20.5082 -10.8743 1.5666 16.5459 -18.1640 22.4881 7.3753 -9.2313 10.3424 -0.0000 -0.0000 0.0000 -26.0232 -70.0176 -35.4922 52.8507 -54.0825 -28.4671 -0.0000 0.0000 -30.1250 45.8287 32.0809 28.6657 -7.1250 0.0000 -0.0000 22.9722 70.7485 14.3553 -0.0000 -0.0000 0.0000 3.5250 61.7586 -64.3959 -55.0795 54.8494 -30.2810 0.0000 -0.0000 -7.4922 -49.4118 2.1273 -2.4809 7.1250 -0.0000 -0.0000 -17.2165 -26.5975 -8.0306
0.2558 17.0813 1.4568 -3.4442 2.6971 -3.8870 0.0000 0.0000 0.0000 -20.9123 -15.8858 15.7576 0.9797 6.3007 17.6594 1.5174 5.7107 -25.9391 0.5067 -4.5631 -12.6666 0.0000 0.0000 0.0000 24.0272 0.9965 20.5513 0.0000 -0.0000 0.0000 -0.1954 -9.8561 -16.8831 -0.8515 5.8852 -16.4517 -2.0505 0.2634 -12.6755 -0.5936 0.5590 -8.5297 0.5942 0.3553 -1.8569 -20.5012 -10.8484 1.6277 16.4658 -18.1349 22.6063 7.3557 -9.2267 10.3586 -0.0000 -0.0000 0.0000 -26.0375 -69.3515 -35.4803 53.0386 -54.1498 -28.6193 -0.0000 0.0000 -30.1632 45.9869 32.1890 28.8719 -7.1250 0.0000 -0.0000 23.3270 70.9188 14.6714 -0.0000 -0.0000 0.0000 3.4555 61.1126 -64.5093 -55.0239 54.8311 -30.2355 0.0000 -0.0000 -7.6292 -49.5029 1.9822 -2.3194 7.1250 -0.0000 -0.0000 -17.3203 -26.8034 -7.9952
0.2524 17.0810 1.4616 -3.3198 2.6893 -3.9286 0.0000 0.0000 0.0000 -21.0405 -15.8205 15.8092 0.9778 6.2947 17.6420 1.5195 5.6161 -25.9002 0.4899 -4.4880 -12.4538 0.0000 0.0000 0.0000 23.9042 0.9833 20.6244 0.0000 0.0000 -0.0000 -0.2000 -9.8280 -16.9098 -0.8655 5.9322 -16.5878 -2.2388 0.2361 -12.7263 -0.6252 0.5428 -8.5175 0.6659 0.3535 -1.8189 -20.4817 -10.7820 1.7531 16.4241 -18.0600 22.6684 7.3594 -9.2012 10.3340 0.0000 0.0000 0.0000 -26.3952 -68.6272 -35.1931 53.3383 -54.2563 -28.8625 -0.0000 0.0000 -30.1558 45.9579 32.1337 28.8102 -7.1250 0.0000 -0.0000 23.2506 70.8479 14.5857 0.0000 0.0000 0.0000 3.6270 60.5488 -64.4784 -55.0821 54.8503 -30.2831 0.0000 -0.0000 -7.5796 -49.3814 1.5948 -1.8586 7.1250 -0.0000 -0.0000 -17.3328 -27.3795 -7.7539
0.2503 17.0791 1.4662 -3.3608 2.6957 -3.9939 0.0000 0.0000 0.0000 -20.9972 -15.7729 15.8778 0.9790 6.2986 17.6532 1.5217 5.5372 -25.8707 0.4649 -4.3736 -12.1301 0.0000 0.0000 0.0000 23.9592 0.9362 20.7043 0.0000 -0.0000 0.0000 -0.1969 -9.8539 -16.8999 -0.8724 5.9550 -16.6538 -2.2350 0.2431 -12.7544 -0.6458 0.5524 -8.5188 0.6436 0.3575 -1.8053 -20.4431 -10.7102 1.9615 16.4338 -18.0016 22.6951 7.3815 -9.1832 10.2877 -0.0000 -0.0000 0.0000 -26.9448 -67.9703 -34.7567 53.7140 -54.3878 -29.1676 -0.0000 0.0000 -30.1313 45.9702 32.3956 28.9961 -7.1250 0.0000 -0.0000 23.3581 71.1445 14.8063 -0.0000 -0.0000 0.0000 3.9682 59.8942 -64.2880 -55.1449 54.8709 -30.3344 0.0000 -0.0000 -7.5684 -49.4300 1.1798 -1.3776 7.1250 -0.0000 -0.0000 -17.4772 -27.9846 -7.5613
0.2499 17.0760 1.4691 -3.4391 2.7014 -4.0963 0.0000 0.0000 0.0000 -20.9378 -15.7205 15.9844 0.9811 6.3050 17.6719 1.5125 5.6232 -25.8523 0.4984 -4.5259 -12.5611 0.0000 0.0000 0.0000 24.0487 0.8781 20.8036 0.0000 -0.0000 0.0000 -0.1914 -9.8902 -16.8724 -0.8671 5.9375 -16.6031 -2.1946 0.2399 -12.7593 -0.6163 0.5452 -8.4736 0.6512 0.3522 -1.7542 -20.4941 -10.6582 2.1195 16.4388 -17.9513 22.6873 7.4097 -9.1732 10.2497 0.0000 -0.0000 0.0000 -27.0480 -67.3400 -34.8315 53.8531 -54.4360 -29.2807 -0.0000 0.0000 -30.0727 46.0037 32.2625 28.9354 -7.1250 0.0000 -0.0000 23.3846 71.0062 14.7533 0.0000 -0.0000 0.0000 4.1419 59.2998 -64.2685 -55.2428 54.9029 -30.4145 0.0000 -0.0000 -7.6087 -49.5152 0.8935 -1.0466 7.1250 -0.0000 -0.0000 -17.6160 -28.4001 -7.4442
0.2503 17.0747 1.4706 -3.5158 2.7263 -4.1903 0.0000 0.0000 0.0000 -20.8749 -15.6980 16.0619 0.9861 6.3206 17.7174 1.5190 5.5938 -25.8834 0.5272 -4.6530 -12.9214 0.0000 0.0000 0.0000 24.1206 0.8096 20.8860 0.0000 0.0000 -0.0000 -0.1972 -9.8382 -16.8859 -0.8484 5.8747 -16.4214 -2.1357 0.2361 -12.7553 -0.5928 0.5351 -8.4322 0.6418 0.3448 -1.7114 -20.5380 -10.6160 2.2876 16.4290 -17.9150 22.6843 7.4294 -9.1705 10.2125 0.0000 -0.0000 0.0000 -26.9842 -66.7315 -35.0321 53.9006 -54.4524 -29.3194 -0.0000 0.0000 -30.2705 46.1377 31.6704 28.6481 -7.1250 0.0000 -0.0000 23.4656 70.3843 14.4877 0.0000 -0.0000 0.0000 4.2699 58.6831 -64.3374 -55.3954 54.9526 -30.5395 0.0000 -0.0000 -7.6707 -49.3875 0.6156 -0.7178 7.1250 -0.0000 -0.0000 -17.5946 -28.8129 -7.2526
0.2509 17.0745 1.4734 -3.4703 2.7879 -4.2318 0.0000 0.0000 0.0000 -20.9504 -15.7220 16.1069 0.9898 6.3322 17.7514 1.5223 5.5888 -25.9044 0.5577 -4.7837 -13.2927 0.0000 0.0000 0.0000 24.0553 0.7368 20.9167 0.0000 -0.0000 0.0000 -0.2018 -9.8148 -16.9174 -0.8640 5.9272 -16.5732 -2.1734 0.2295 -12.7412 -0.6436 0.5296 -8.4533 0.6092 0.3427 -1.7412 -20.5188 -10.5756 2.4536 16.3865 -17.8897 22.7653 7.4273 -9.1706 10.1987 0.0000 -0.0000 0.0000 -27.2112 -66.1096 -34.9514 54.1337 -54.5325 -29.5092 -0.0000 0.0000 -30.5396 46.2877 31.2282 28.4706 -7.1250 0.0000 -0.0000 23.6176 69.9333 14.3513 0.0000 -0.0000 0.0000 4.5991 58.0124 -64.2440 -55.5675 55.0082 -30.6804 0.0000 -0.0000 -7.6611 -49.3832 0.5713 -0.6661 7.1250 -0.0000 -0.0000 -17.6031 -28.8779 -7.2278
0.2507 17.0732 1.4767 -3.4686 2.8066 -4.3128 0.0000 0.0000 0.0000 -20.9731 -15.7004 16.2015 0.9888 6.3292 17.7425 1.5424 5.4032 -25.9457 0.4894 -4.4858 -12.4475 0.0000 0.0000 0.0000 24.0516 0.6811 20.9987 0.0000 0.0000 -0.0000 -0.2053 -9.7908 -16.9348 -0.8460 5.8667 -16.3980 -2.1423 0.2573 -12.6713 -0.7018 0.5607 -8.4760 0.5339 0.3563 -1.8024 -20.5248 -10.5370 2.6474 16.3920 -17.8839 22.8448 7.4463 -9.1804 10.1912 0.0000 -0.0000 0.0000 -27.5897 -65.5214 -34.7067 54.4703 -54.6467 -29.7835 -0.0000 0.0000 -30.7132 46.4145 31.1713 28.5377 -7.1250 0.0000 -0.0000 23.8485 69.9087 14.4841 0.0000 -0.0000 0.0000 4.8583 57.2871 -64.2333 -55.7397 55.0635 -30.8215 0.0000 -0.0000 -7.7818 -49.6400 0.8687 -1.0220 7.1250 -0.0000 -0.0000 -17.7151 -28.4305 -7.4765
